<svg xmlns="http://www.w3.org/2000/svg" xmlns:xlink="http://www.w3.org/1999/xlink" width="1920" height="1080" viewBox="0 0 1920 1080">
  <defs>
    <clipPath id="clip-Web_1920_1">
      <rect width="1920" height="1080"/>
    </clipPath>
  </defs>
  <g id="Web_1920_1" data-name="Web 1920 – 1" clip-path="url(#clip-Web_1920_1)">
    <rect width="1920" height="1080" fill="#fff"/>
    <g id="paw" transform="matrix(0.966, -0.259, 0.259, 0.966, 1245.086, 572.862)">
      <path id="Path_1" data-name="Path 1" d="M13.562.125c3.182,0,5.765,3.957,5.765,8.835S16.744,17.8,13.562,17.8,7.8,13.842,7.8,8.961,10.38.125,13.562.125Zm7.329,21.388c6.75.014,7.59,4.485,13.28,12.139,2.837,5.569-.846,9.079-7.16,7.576a13.71,13.71,0,0,0-6.9-1.906c-3.5.122-4.384,2.431-8.456,2.268-3.141-.085-4.556-1.4-4.831-3.409-.295-2.133.528-3.48,1.53-5.244,3.893-6.865,7.918-12.285,12.535-11.425ZM2.428,13.229c-2.38.941-3.138,4.661-1.7,8.307s4.54,5.839,6.919,4.9,3.138-4.661,1.7-8.307-4.54-5.839-6.919-4.9Zm35.673,0c2.38.941,3.138,4.661,1.7,8.307s-4.543,5.839-6.919,4.9-3.138-4.661-1.7-8.307,4.54-5.839,6.919-4.9ZM26.863,0c3.182,0,5.765,3.957,5.765,8.835s-2.583,8.835-5.765,8.835S21.1,13.717,21.1,8.835,23.681,0,26.863,0Z" transform="translate(0 0)" fill-rule="evenodd"/>
    </g>
    <text id="Pet_Salon" data-name="Pet Salon" transform="translate(1295 604)" font-size="23" font-family="Montserrat-Regular, Montserrat"><tspan x="0" y="0">Pet Salon</tspan></text>
  </g>
</svg>
